<svg width="256" height="256" viewBox="0 0 256 256" fill="none" xmlns="http://www.w3.org/2000/svg" role="img" aria-labelledby="title desc">
  <title id="title">Model Printer icon</title>
  <desc id="desc">A compact model graph mark with an export sheet for Model Printer.</desc>
  <defs>
    <linearGradient id="background" x1="40" y1="28" x2="216" y2="228" gradientUnits="userSpaceOnUse">
      <stop stop-color="#0F172A"/>
      <stop offset="0.56" stop-color="#123B4D"/>
      <stop offset="1" stop-color="#065F46"/>
    </linearGradient>
    <linearGradient id="accent" x1="58" y1="60" x2="198" y2="198" gradientUnits="userSpaceOnUse">
      <stop stop-color="#38BDF8"/>
      <stop offset="0.48" stop-color="#22C55E"/>
      <stop offset="1" stop-color="#FACC15"/>
    </linearGradient>
    <filter id="softShadow" x="-15%" y="-15%" width="130%" height="130%">
      <feDropShadow dx="0" dy="12" stdDeviation="12" flood-color="#020617" flood-opacity="0.35"/>
    </filter>
  </defs>

  <rect x="18" y="18" width="220" height="220" rx="52" fill="url(#background)"/>
  <rect x="28" y="28" width="200" height="200" rx="43" stroke="#38BDF8" stroke-opacity="0.42" stroke-width="3"/>

  <g filter="url(#softShadow)">
    <path d="M72 92H113L128 122L143 92H184" stroke="#CBD5E1" stroke-width="14" stroke-linecap="round" stroke-linejoin="round"/>
    <path d="M72 92V164H104" stroke="#CBD5E1" stroke-width="14" stroke-linecap="round" stroke-linejoin="round"/>
    <path d="M184 92V164H152" stroke="#CBD5E1" stroke-width="14" stroke-linecap="round" stroke-linejoin="round"/>
    <path d="M104 164L128 132L152 164" stroke="#CBD5E1" stroke-width="14" stroke-linecap="round" stroke-linejoin="round"/>
  </g>

  <g>
    <circle cx="72" cy="92" r="18" fill="#020617" stroke="#38BDF8" stroke-width="7"/>
    <circle cx="184" cy="92" r="18" fill="#020617" stroke="#22C55E" stroke-width="7"/>
    <circle cx="128" cy="132" r="18" fill="#020617" stroke="#FACC15" stroke-width="7"/>
    <circle cx="104" cy="164" r="18" fill="#020617" stroke="#A78BFA" stroke-width="7"/>
    <circle cx="152" cy="164" r="18" fill="#020617" stroke="#FB7185" stroke-width="7"/>
  </g>

  <path d="M64 56H98" stroke="url(#accent)" stroke-width="8" stroke-linecap="round"/>
  <path d="M64 200H116" stroke="url(#accent)" stroke-width="8" stroke-linecap="round" opacity="0.8"/>

  <g>
    <path d="M163 183C163 176.925 167.925 172 174 172H201L220 191V213C220 219.075 215.075 224 209 224H174C167.925 224 163 219.075 163 213V183Z" fill="#F8FAFC"/>
    <path d="M201 172V188C201 190.209 202.791 192 205 192H220" fill="#E2E8F0"/>
    <path d="M201 172V188C201 190.209 202.791 192 205 192H220" stroke="#94A3B8" stroke-width="3" stroke-linejoin="round"/>
    <path d="M176 206H207" stroke="#0F172A" stroke-width="6" stroke-linecap="round"/>
    <path d="M194 194L207 206L194 218" stroke="#0F172A" stroke-width="6" stroke-linecap="round" stroke-linejoin="round"/>
  </g>
</svg>
