<svg width="256" height="256" viewBox="0 0 256 256" fill="none" xmlns="http://www.w3.org/2000/svg" role="img" aria-labelledby="title desc">
  <title id="title">Model Printer icon</title>
  <desc id="desc">A clean model graph icon with a separate export arrow.</desc>
  <defs>
    <linearGradient id="bg" x1="32" y1="24" x2="224" y2="232" gradientUnits="userSpaceOnUse">
      <stop stop-color="#0F172A"/>
      <stop offset="0.58" stop-color="#134E4A"/>
      <stop offset="1" stop-color="#0B3B5A"/>
    </linearGradient>
    <linearGradient id="ring" x1="47" y1="42" x2="210" y2="218" gradientUnits="userSpaceOnUse">
      <stop stop-color="#38BDF8"/>
      <stop offset="1" stop-color="#34D399"/>
    </linearGradient>
  </defs>

  <rect x="18" y="18" width="220" height="220" rx="54" fill="url(#bg)"/>
  <rect x="30" y="30" width="196" height="196" rx="44" stroke="url(#ring)" stroke-width="4" stroke-opacity="0.72"/>

  <path d="M128 75V113" stroke="#94A3B8" stroke-width="9" stroke-linecap="round"/>
  <path d="M96 151H160" stroke="#94A3B8" stroke-width="9" stroke-linecap="round"/>
  <path d="M128 113L96 151" stroke="#94A3B8" stroke-width="9" stroke-linecap="round"/>
  <path d="M128 113L160 151" stroke="#94A3B8" stroke-width="9" stroke-linecap="round"/>

  <rect x="94" y="52" width="68" height="46" rx="17" fill="#020617" stroke="#38BDF8" stroke-width="6"/>
  <rect x="60" y="151" width="72" height="48" rx="17" fill="#020617" stroke="#22C55E" stroke-width="6"/>
  <rect x="124" y="151" width="72" height="48" rx="17" fill="#020617" stroke="#FACC15" stroke-width="6"/>

  <circle cx="128" cy="75" r="7" fill="#7DD3FC"/>
  <circle cx="96" cy="175" r="7" fill="#86EFAC"/>
  <circle cx="160" cy="175" r="7" fill="#FDE68A"/>

  <path d="M74 114H113" stroke="#E2E8F0" stroke-width="9" stroke-linecap="round"/>
  <path d="M91 97L74 114L91 131" stroke="#E2E8F0" stroke-width="9" stroke-linecap="round" stroke-linejoin="round"/>

  <path d="M178 98H203" stroke="#E2E8F0" stroke-width="9" stroke-linecap="round"/>
  <path d="M192 85L205 98L192 111" stroke="#E2E8F0" stroke-width="9" stroke-linecap="round" stroke-linejoin="round"/>
</svg>
