<svg width="256" height="256" viewBox="0 0 256 256" fill="none" xmlns="http://www.w3.org/2000/svg" role="img" aria-labelledby="title desc">
  <title id="title">Model Printer icon</title>
  <desc id="desc">A terminal-style model graph icon for Model Printer.</desc>
  <defs>
    <linearGradient id="bg" x1="32" y1="20" x2="224" y2="236" gradientUnits="userSpaceOnUse">
      <stop stop-color="#0F172A"/>
      <stop offset="0.54" stop-color="#123B4D"/>
      <stop offset="1" stop-color="#064E3B"/>
    </linearGradient>
    <linearGradient id="stroke" x1="47" y1="44" x2="214" y2="212" gradientUnits="userSpaceOnUse">
      <stop stop-color="#38BDF8"/>
      <stop offset="1" stop-color="#34D399"/>
    </linearGradient>
    <filter id="glow" x="-20%" y="-20%" width="140%" height="140%">
      <feGaussianBlur stdDeviation="4" result="blur"/>
      <feColorMatrix in="blur" type="matrix" values="0 0 0 0 0.22 0 0 0 0 0.83 0 0 0 0 0.96 0 0 0 0.5 0"/>
      <feBlend in="SourceGraphic"/>
    </filter>
  </defs>
  <rect x="18" y="18" width="220" height="220" rx="48" fill="url(#bg)"/>
  <rect x="27" y="27" width="202" height="202" rx="40" stroke="url(#stroke)" stroke-width="6"/>
  <path d="M72 79H184" stroke="#64748B" stroke-width="8" stroke-linecap="round"/>
  <path d="M128 94V124" stroke="#64748B" stroke-width="8" stroke-linecap="round"/>
  <path d="M91 154H165" stroke="#64748B" stroke-width="8" stroke-linecap="round"/>
  <path d="M91 154L64 183" stroke="#64748B" stroke-width="8" stroke-linecap="round"/>
  <path d="M165 154L192 183" stroke="#64748B" stroke-width="8" stroke-linecap="round"/>
  <g filter="url(#glow)">
    <rect x="54" y="58" width="52" height="42" rx="14" fill="#020617" stroke="#38BDF8" stroke-width="5"/>
    <rect x="150" y="58" width="52" height="42" rx="14" fill="#020617" stroke="#22C55E" stroke-width="5"/>
    <rect x="102" y="119" width="52" height="42" rx="14" fill="#020617" stroke="#FACC15" stroke-width="5"/>
    <rect x="39" y="180" width="52" height="42" rx="14" fill="#020617" stroke="#A78BFA" stroke-width="5"/>
    <rect x="165" y="180" width="52" height="42" rx="14" fill="#020617" stroke="#FB7185" stroke-width="5"/>
  </g>
  <path d="M72 197H55L63.5 188.5L72 197Z" fill="#A78BFA"/>
  <path d="M184 197H201L192.5 188.5L184 197Z" fill="#FB7185"/>
  <path d="M62 132L74 144L62 156" stroke="#7DD3FC" stroke-width="7" stroke-linecap="round" stroke-linejoin="round"/>
  <path d="M86 157H118" stroke="#7DD3FC" stroke-width="7" stroke-linecap="round"/>
  <circle cx="76" cy="79" r="6" fill="#38BDF8"/>
  <circle cx="176" cy="79" r="6" fill="#22C55E"/>
  <circle cx="128" cy="140" r="6" fill="#FACC15"/>
</svg>
