<svg width="256" height="256" viewBox="0 0 256 256" fill="none" xmlns="http://www.w3.org/2000/svg" role="img" aria-labelledby="title desc">
  <title id="title">Model Printer icon</title>
  <desc id="desc">A printer outputting a model architecture diagram.</desc>
  <defs>
    <linearGradient id="bg" x1="34" y1="24" x2="222" y2="232" gradientUnits="userSpaceOnUse">
      <stop stop-color="#0F172A"/>
      <stop offset="0.58" stop-color="#123B4D"/>
      <stop offset="1" stop-color="#065F46"/>
    </linearGradient>
    <linearGradient id="edge" x1="38" y1="34" x2="218" y2="222" gradientUnits="userSpaceOnUse">
      <stop stop-color="#38BDF8"/>
      <stop offset="1" stop-color="#34D399"/>
    </linearGradient>
    <filter id="shadow" x="-20%" y="-20%" width="140%" height="140%">
      <feDropShadow dx="0" dy="10" stdDeviation="9" flood-color="#020617" flood-opacity="0.32"/>
    </filter>
  </defs>

  <rect x="18" y="18" width="220" height="220" rx="52" fill="url(#bg)"/>
  <rect x="30" y="30" width="196" height="196" rx="42" stroke="url(#edge)" stroke-width="4" stroke-opacity="0.68"/>

  <!-- Input paper with a visible model graph. -->
  <g filter="url(#shadow)">
    <path d="M78 42C78 35.373 83.373 30 90 30H158L180 52V112C180 118.627 174.627 124 168 124H90C83.373 124 78 118.627 78 112V42Z" fill="#F8FAFC"/>
    <path d="M158 30V48C158 51.314 160.686 54 164 54H180" fill="#E2E8F0"/>
    <path d="M158 30V48C158 51.314 160.686 54 164 54H180" stroke="#94A3B8" stroke-width="3" stroke-linejoin="round"/>
    <path d="M112 66H146" stroke="#94A3B8" stroke-width="5" stroke-linecap="round"/>
    <path d="M129 79V92" stroke="#94A3B8" stroke-width="5" stroke-linecap="round"/>
    <path d="M104 96H154" stroke="#94A3B8" stroke-width="5" stroke-linecap="round"/>
    <rect x="94" y="56" width="34" height="22" rx="7" fill="#E0F2FE" stroke="#0284C7" stroke-width="3"/>
    <rect x="130" y="56" width="34" height="22" rx="7" fill="#DCFCE7" stroke="#16A34A" stroke-width="3"/>
    <rect x="99" y="90" width="34" height="22" rx="7" fill="#FEF3C7" stroke="#CA8A04" stroke-width="3"/>
    <rect x="138" y="90" width="34" height="22" rx="7" fill="#FCE7F3" stroke="#DB2777" stroke-width="3"/>
  </g>

  <!-- Printer body. -->
  <g filter="url(#shadow)">
    <rect x="48" y="102" width="160" height="76" rx="22" fill="#020617" stroke="#38BDF8" stroke-width="5"/>
    <rect x="72" y="119" width="112" height="14" rx="7" fill="#1E293B"/>
    <circle cx="74" cy="148" r="7" fill="#38BDF8"/>
    <circle cx="96" cy="148" r="7" fill="#22C55E"/>
    <rect x="119" y="143" width="58" height="10" rx="5" fill="#475569"/>
  </g>

  <!-- Output paper with the exported architecture diagram. -->
  <g filter="url(#shadow)">
    <rect x="70" y="158" width="116" height="66" rx="11" fill="#F8FAFC"/>
    <path d="M92 184H128" stroke="#94A3B8" stroke-width="5" stroke-linecap="round"/>
    <path d="M128 184H164" stroke="#94A3B8" stroke-width="5" stroke-linecap="round"/>
    <path d="M128 184V204" stroke="#94A3B8" stroke-width="5" stroke-linecap="round"/>
    <circle cx="92" cy="184" r="10" fill="#E0F2FE" stroke="#0284C7" stroke-width="4"/>
    <circle cx="128" cy="184" r="10" fill="#DCFCE7" stroke="#16A34A" stroke-width="4"/>
    <circle cx="164" cy="184" r="10" fill="#FEF3C7" stroke="#CA8A04" stroke-width="4"/>
    <rect x="112" y="202" width="32" height="14" rx="7" fill="#FCE7F3" stroke="#DB2777" stroke-width="3"/>
  </g>
</svg>
